<svg width="28" height="20" viewBox="0 0 28 20" fill="none" xmlns="http://www.w3.org/2000/svg">
<g id="search">
<path id="icon" d="M22.8667 16.9452L15.5167 11.8591C14.9333 12.1821 14.2625 12.4377 13.5042 12.6261C12.7458 12.8145 11.9389 12.9086 11.0833 12.9086C8.96389 12.9086 7.17014 12.4007 5.70208 11.3848C4.23403 10.369 3.5 9.12772 3.5 7.66109C3.5 6.19447 4.23403 4.95322 5.70208 3.93735C7.17014 2.92148 8.96389 2.41354 11.0833 2.41354C13.2028 2.41354 14.9965 2.92148 16.4646 3.93735C17.9326 4.95322 18.6667 6.19447 18.6667 7.66109C18.6667 8.25313 18.5306 8.81152 18.2583 9.33627C17.9861 9.86103 17.6167 10.3252 17.15 10.7289L24.5 15.815L22.8667 16.9452ZM11.0833 11.294C12.5417 11.294 13.7812 10.9408 14.8021 10.2344C15.8229 9.52801 16.3333 8.67024 16.3333 7.66109C16.3333 6.65195 15.8229 5.79418 14.8021 5.08778C13.7812 4.38137 12.5417 4.02817 11.0833 4.02817C9.625 4.02817 8.38542 4.38137 7.36458 5.08778C6.34375 5.79418 5.83333 6.65195 5.83333 7.66109C5.83333 8.67024 6.34375 9.52801 7.36458 10.2344C8.38542 10.9408 9.625 11.294 11.0833 11.294Z" fill="#1D1B20"/>
</g>
</svg>
